<svg width="24" height="24" viewBox="0 0 24 24" fill="none" xmlns="http://www.w3.org/2000/svg">
<path d="M17 16V7.2C17 6.0799 17 5.51984 16.782 5.09202C16.5903 4.71569 16.2843 4.40973 15.908 4.21799C15.4802 4 14.9201 4 13.8 4H5.2C4.0799 4 3.51984 4 3.09202 4.21799C2.71569 4.40973 2.40973 4.71569 2.21799 5.09202C2 5.51984 2 6.07989 2 7.2V12.8C2 13.9201 2 14.4802 2.21799 14.908C2.40973 15.2843 2.71569 15.5903 3.09202 15.782C3.51984 16 4.07989 16 5.2 16H17ZM17 16H20.6C21.4401 16 21.8601 16 22.181 15.8365C22.4632 15.6927 22.6927 15.4632 22.8365 15.181C23 14.8601 23 14.4401 23 13.6V11.8C23 11.5032 23 11.3548 22.9721 11.2122C22.9474 11.0857 22.9065 10.963 22.8504 10.8469C22.7871 10.7162 22.6981 10.5975 22.52 10.36L20.72 7.96C20.456 7.608 20.324 7.432 20.1567 7.30506C20.0085 7.19264 19.8408 7.10874 19.6619 7.05767C19.46 7 19.24 7 18.8 7H17V16ZM7 20C5.89543 20 5 19.1046 5 18C5 16.8954 5.89543 16 7 16C8.10457 16 9 16.8954 9 18C9 19.1046 8.10457 20 7 20ZM18 20C16.8954 20 16 19.1046 16 18C16 16.8954 16.8954 16 18 16C19.1046 16 20 16.8954 20 18C20 19.1046 19.1046 20 18 20Z" stroke="black" stroke-width="2" stroke-linecap="round" stroke-linejoin="round"/>
</svg>
