<svg width="24" height="24" viewBox="0 0 24 24" fill="none" xmlns="http://www.w3.org/2000/svg">
<path d="M11.2236 9.31429L7.96436 12.541L5.00117 11.7717C4.70813 11.6957 4.56158 11.6576 4.41931 11.6551C4.1909 11.651 3.96607 11.7122 3.77123 11.8314C3.64987 11.9057 3.54283 12.0128 3.32873 12.2269C2.9333 12.6223 2.73559 12.82 2.64453 13.0329C2.49784 13.3759 2.51899 13.7676 2.70175 14.0927C2.81519 14.2946 3.03306 14.4699 3.46875 14.8204L6.65602 17.3849L9.22045 20.5721C9.57099 21.0078 9.74629 21.2257 9.94815 21.3391C10.2733 21.5219 10.665 21.543 11.008 21.3964C11.2209 21.3053 11.4186 21.1076 11.814 20.7122C12.0281 20.4981 12.1352 20.391 12.2095 20.2697C12.3287 20.0748 12.3899 19.85 12.3858 19.6216C12.3833 19.4793 12.3452 19.3328 12.2691 19.0397L11.4999 16.0765L14.7591 12.8498L17.0533 18.2185C17.4705 19.195 18.7424 19.4406 19.4933 18.6898L20.1537 18.0293C20.5257 17.6573 20.6757 17.1175 20.5487 16.6069L18.6482 8.96074L20.7085 6.90041C21.6849 5.9241 21.6849 4.34119 20.7085 3.36488C19.7322 2.38857 18.1493 2.38857 17.173 3.36488L15.1127 5.4252L7.46656 3.52468C6.95593 3.39776 6.41613 3.54767 6.04407 3.91972L5.38365 4.58015C4.63279 5.33101 4.87843 6.60289 5.85489 7.02015L11.2236 9.31429Z" stroke="black" stroke-width="2" stroke-linecap="round" stroke-linejoin="round"/>
</svg>
