<svg width="24" height="24" viewBox="0 0 24 24" fill="none" xmlns="http://www.w3.org/2000/svg">
<path d="M6 15H7.5M16.5074 15H18.0074M21 11L22 10M3 11L2 10M20.5 11.5L19.758 8.956C19.3965 7.71667 19.2158 7.097 18.8517 6.63729C18.5302 6.2315 18.1093 5.91579 17.6297 5.72085C17.0865 5.5 16.441 5.5 15.15 5.5H8.85C7.55903 5.5 6.91355 5.5 6.37026 5.72085C5.89071 5.91579 5.46976 6.2315 5.14834 6.63729C4.78421 7.097 4.60347 7.71667 4.242 8.956L3.5 11.5H20.5ZM19.3463 22H19.6148C20.4409 22 20.854 22 21.1706 21.8418C21.4611 21.6966 21.6966 21.4611 21.8418 21.1706C22 20.854 22 20.4409 22 19.6148V16.3C22 14.6198 22 13.7798 21.673 13.138C21.3854 12.5735 20.9265 12.1146 20.362 11.827C19.7202 11.5 18.8802 11.5 17.2 11.5H6.8C5.11984 11.5 4.27976 11.5 3.63803 11.827C3.07354 12.1146 2.6146 12.5735 2.32698 13.138C2 13.7798 2 14.6198 2 16.3V19.6148C2 20.4409 2 20.854 2.15824 21.1706C2.30342 21.4611 2.53894 21.6966 2.82942 21.8418C3.14604 22 3.55908 22 4.38516 22H4.65371C4.97142 22 5.13028 22 5.27337 21.9719C5.67255 21.8936 6.02278 21.6564 6.24378 21.3149C6.32301 21.1925 6.382 21.045 6.5 20.75C6.618 20.455 6.67699 20.3075 6.75622 20.1851C6.97722 19.8436 7.32745 19.6064 7.72663 19.5281C7.86972 19.5 8.02858 19.5 8.34629 19.5H15.6537C15.9714 19.5 16.1303 19.5 16.2734 19.5281C16.6725 19.6064 17.0228 19.8436 17.2438 20.1851C17.323 20.3075 17.382 20.455 17.5 20.75C17.618 21.045 17.677 21.1925 17.7562 21.3149C17.9772 21.6564 18.3275 21.8936 18.7266 21.9719C18.8697 22 19.0286 22 19.3463 22ZM15.3139 5.5V4.4C15.3139 3.55992 15.3139 3.13988 15.1504 2.81901C15.0066 2.53677 14.7772 2.3073 14.4949 2.16349C14.1741 2 13.754 2 12.9139 2H11.0861C10.246 2 9.82595 2 9.50508 2.16349C9.22284 2.3073 8.99337 2.53677 8.84956 2.81901C8.68607 3.13988 8.68607 3.55992 8.68607 4.4V5.5H15.3139Z" stroke="black" stroke-width="2" stroke-linecap="round" stroke-linejoin="round"/>
</svg>
