<svg width="24" height="24" viewBox="0 0 24 24" fill="none" xmlns="http://www.w3.org/2000/svg">
<path d="M3 6.95095C3 6.52672 3 6.3146 3.07196 6.13531C3.1355 5.97703 3.23846 5.83762 3.37106 5.73035C3.52126 5.60884 3.724 5.54646 4.12946 5.4217L11.0589 3.28956C11.4086 3.18196 11.5835 3.12816 11.7618 3.10677C11.92 3.08778 12.08 3.08778 12.2382 3.10677C12.4165 3.12816 12.5914 3.18196 12.9411 3.28956L19.8705 5.4217C20.276 5.54646 20.4787 5.60884 20.6289 5.73035C20.7615 5.83762 20.8645 5.97703 20.928 6.13531C21 6.3146 21 6.52672 21 6.95095V7.39999C21 7.96005 21 8.24007 20.891 8.45399C20.7951 8.64215 20.6422 8.79513 20.454 8.891C20.2401 9 19.9601 9 19.4 9H4.6C4.03995 9 3.75992 9 3.54601 8.891C3.35785 8.79513 3.20487 8.64215 3.10899 8.45399C3 8.24007 3 7.96005 3 7.4L3 6.95095Z" stroke="black" stroke-width="2" stroke-linecap="round" stroke-linejoin="round"/>
<path d="M3 18.6C3 18.0399 3 17.7599 3.10899 17.546C3.20487 17.3578 3.35785 17.2049 3.54601 17.109C3.75992 17 4.03995 17 4.6 17H19.4C19.9601 17 20.2401 17 20.454 17.109C20.6422 17.2049 20.7951 17.3578 20.891 17.546C21 17.7599 21 18.0399 21 18.6V19.4C21 19.96 21 20.2401 20.891 20.454C20.7951 20.6421 20.6422 20.7951 20.454 20.891C20.2401 21 19.9601 21 19.4 21H4.6C4.03995 21 3.75992 21 3.54601 20.891C3.35785 20.7951 3.20487 20.6421 3.10899 20.454C3 20.2401 3 19.96 3 19.4V18.6Z" stroke="black" stroke-width="2" stroke-linecap="round" stroke-linejoin="round"/>
<path d="M14 9H19V17H14V9Z" stroke="black" stroke-width="2" stroke-linecap="round" stroke-linejoin="round"/>
<path d="M5 9H10V17H5V9Z" stroke="black" stroke-width="2" stroke-linecap="round" stroke-linejoin="round"/>
</svg>
