<svg width="24" height="24" viewBox="0 0 24 24" fill="none" xmlns="http://www.w3.org/2000/svg">
<path d="M12 16H3.33333C2.59695 16 2 16.597 2 17.3333C2 18.8061 3.19391 20 4.66667 20H12.5M12.5 16H3V7.2C3 6.0799 3 5.51984 3.21799 5.09202C3.40973 4.71569 3.71569 4.40973 4.09202 4.21799C4.51984 4 5.07989 4 6.2 4H17.8C18.9201 4 19.4802 4 19.908 4.21799C20.2843 4.40973 20.5903 4.71569 20.782 5.09202C21 5.51984 21 6.0799 21 7.2V9.5M18.4 22H19.6C20.4401 22 20.8601 22 21.181 21.8365C21.4632 21.6927 21.6927 21.4632 21.8365 21.181C22 20.8601 22 20.4401 22 19.6V15.4C22 14.5599 22 14.1399 21.8365 13.819C21.6927 13.5368 21.4632 13.3073 21.181 13.1635C20.8601 13 20.4401 13 19.6 13H18.4C17.5599 13 17.1399 13 16.819 13.1635C16.5368 13.3073 16.3073 13.5368 16.1635 13.819C16 14.1399 16 14.5599 16 15.4V19.6C16 20.4401 16 20.8601 16.1635 21.181C16.3073 21.4632 16.5368 21.6927 16.819 21.8365C17.1399 22 17.5599 22 18.4 22Z" stroke="black" stroke-width="2" stroke-linecap="round" stroke-linejoin="round"/>
</svg>
