<svg width="24" height="24" viewBox="0 0 24 24" fill="none" xmlns="http://www.w3.org/2000/svg">
<path d="M5.31272 13.5332L10.8733 3.59581C11.4456 2.57301 11.7318 2.06161 11.9452 2.0108C12.1286 1.96713 12.321 2.03038 12.4428 2.17437C12.5844 2.3419 12.5114 2.92334 12.3652 4.08622L11.826 8.37643C11.7869 8.68737 11.7673 8.84284 11.816 8.96339C11.8587 9.06924 11.9364 9.15728 12.0361 9.21288C12.1496 9.2762 12.3063 9.2762 12.6197 9.2762H18.0372C18.4723 9.2762 18.6899 9.2762 18.8196 9.36781C18.9328 9.44778 19.0078 9.57116 19.0265 9.70849C19.048 9.86581 18.9477 10.0589 18.7471 10.445L13.7741 20.0173C13.1905 21.1406 12.8987 21.7023 12.6838 21.7584C12.4992 21.8066 12.3032 21.7456 12.1787 21.601C12.0337 21.4327 12.1126 20.8047 12.2705 19.5487L12.7638 15.6237C12.8029 15.3127 12.8224 15.1573 12.7738 15.0367C12.731 14.9309 12.6534 14.8428 12.5537 14.7872C12.4401 14.7239 12.2834 14.7239 11.9701 14.7239H6.01086C5.5622 14.7239 5.33787 14.7239 5.20696 14.6296C5.09274 14.5473 5.0185 14.4207 5.00247 14.2808C4.9841 14.1205 5.09364 13.9248 5.31272 13.5332Z" stroke="black" stroke-width="2" stroke-linecap="round" stroke-linejoin="round"/>
</svg>
