<svg width="24" height="24" viewBox="0 0 24 24" fill="none" xmlns="http://www.w3.org/2000/svg">
<path d="M5 9.37402H19L17 22H7L5 9.37402Z" stroke="black" stroke-width="2" stroke-linecap="round" stroke-linejoin="round"/>
<path d="M3.69922 7.3714C3.69922 6.90396 3.69922 6.67025 3.75086 6.47856C3.88989 5.96253 4.29297 5.55945 4.809 5.42042C5.00069 5.36877 5.23441 5.36877 5.70184 5.36877H18.2982C18.7656 5.36877 18.9993 5.36877 19.191 5.42042C19.707 5.55945 20.1101 5.96253 20.2491 6.47856C20.3008 6.67025 20.3008 6.90396 20.3008 7.3714C20.3008 7.83883 20.3008 8.07255 20.2491 8.26424C20.1101 8.78027 19.707 9.18335 19.191 9.32238C18.9993 9.37402 18.7656 9.37402 18.2982 9.37402H5.70184C5.23441 9.37402 5.00069 9.37402 4.809 9.32238C4.29297 9.18335 3.88989 8.78027 3.75086 8.26424C3.69922 8.07255 3.69922 7.83883 3.69922 7.3714Z" stroke="black" stroke-width="2" stroke-linecap="round" stroke-linejoin="round"/>
<path d="M5.5957 5.2C5.5957 4.0799 5.5957 3.51984 5.81369 3.09202C6.00544 2.71569 6.3114 2.40973 6.68772 2.21799C7.11555 2 7.6756 2 8.7957 2H15.2052C16.3253 2 16.8853 2 17.3132 2.21799C17.6895 2.40973 17.9954 2.71569 18.1872 3.09202C18.4052 3.51984 18.4052 4.07989 18.4052 5.2V5.36877H5.5957V5.2Z" stroke="black" stroke-width="2" stroke-linecap="round" stroke-linejoin="round"/>
</svg>
