<svg width="24" height="24" viewBox="0 0 24 24" fill="none" xmlns="http://www.w3.org/2000/svg">
<path d="M3 21L21 21M9.59961 9.02529H14.4004M12 6.6249V11.4257M19.1582 21L19.1582 7.8C19.1582 6.11984 19.1582 5.27976 18.8312 4.63803C18.5436 4.07354 18.0847 3.6146 17.5202 3.32698C16.8784 3 16.0384 3 14.3582 3L9.6418 3C7.96164 3 7.12156 3 6.47983 3.32698C5.91534 3.6146 5.4564 4.07354 5.16878 4.63803C4.8418 5.27976 4.8418 6.11984 4.8418 7.8L4.8418 21H19.1582ZM14.4004 21V17.1889C14.4004 16.3489 14.4004 15.9288 14.2369 15.608C14.0931 15.3257 13.8636 15.0962 13.5814 14.9524C13.2605 14.7889 12.8403 14.7889 12 14.7889C11.1597 14.7889 10.7395 14.7889 10.4186 14.9524C10.1364 15.0962 9.90691 15.3257 9.7631 15.608C9.59961 15.9288 9.59961 16.3489 9.59961 17.1889L9.59961 21H14.4004Z" stroke="black" stroke-width="2" stroke-linecap="round" stroke-linejoin="round"/>
</svg>
