<svg width="24" height="24" viewBox="0 0 24 24" fill="none" xmlns="http://www.w3.org/2000/svg">
<path d="M9.99999 8L8.35354 9.64645C8.15828 9.84171 8.15828 10.1583 8.35354 10.3536L9.99999 12M14 8L15.6464 9.64645C15.8417 9.84171 15.8417 10.1583 15.6464 10.3536L14 12M4.66667 20H19.3333C20.8061 20 22 18.8061 22 17.3333C22 16.597 21.403 16 20.6667 16H3.33333C2.59695 16 2 16.597 2 17.3333C2 18.8061 3.19391 20 4.66667 20ZM21 16V7.2C21 6.0799 21 5.51984 20.782 5.09202C20.5903 4.71569 20.2843 4.40973 19.908 4.21799C19.4802 4 18.9201 4 17.8 4H6.2C5.0799 4 4.51984 4 4.09202 4.21799C3.71569 4.40973 3.40973 4.71569 3.21799 5.09202C3 5.51984 3 6.07989 3 7.2V16H21Z" stroke="black" stroke-width="2" stroke-linecap="round" stroke-linejoin="round"/>
</svg>
