<svg width="24" height="24" viewBox="0 0 24 24" fill="none" xmlns="http://www.w3.org/2000/svg">
<g clip-path="url(#clip0_2006_2219)">
<path d="M10.1846 9.35453C10.1846 8.61521 10.1846 8.24555 10.3384 8.04402C10.4723 7.86851 10.6768 7.76094 10.8974 7.74999C11.1506 7.73741 11.4552 7.94683 12.0644 8.36568L13.0032 9.0111C13.486 9.34301 13.7274 9.50897 13.8121 9.71661C13.8862 9.89823 13.8862 10.1017 13.8121 10.2833C13.7274 10.4909 13.486 10.6569 13.0032 10.9888L12.0644 11.6342C11.4552 12.0531 11.1506 12.2625 10.8974 12.2499C10.6768 12.239 10.4723 12.1314 10.3384 11.9559C10.1846 11.7543 10.1846 11.3847 10.1846 10.6454V9.35453Z" stroke="black" stroke-width="2" stroke-linecap="round" stroke-linejoin="round"/>
</g>
<path d="M9.5 18V21M9.5 21H8M9.5 21H14.5M14.5 21H16M14.5 21V18M6.8 17H17.2C18.8802 17 19.7202 17 20.362 16.673C20.9265 16.3854 21.3854 15.9265 21.673 15.362C22 14.7202 22 13.8802 22 12.2V7.8C22 6.11984 22 5.27976 21.673 4.63803C21.3854 4.07354 20.9265 3.6146 20.362 3.32698C19.7202 3 18.8802 3 17.2 3H6.8C5.11984 3 4.27976 3 3.63803 3.32698C3.07354 3.6146 2.6146 4.07354 2.32698 4.63803C2 5.27976 2 6.11984 2 7.8V12.2C2 13.8802 2 14.7202 2.32698 15.362C2.6146 15.9265 3.07354 16.3854 3.63803 16.673C4.27976 17 5.11984 17 6.8 17Z" stroke="black" stroke-width="2" stroke-linecap="round" stroke-linejoin="round"/>
<defs>
<clipPath id="clip0_2006_2219">
<rect width="6" height="6" fill="white" transform="translate(9 7)"/>
</clipPath>
</defs>
</svg>
