<svg width="24" height="24" viewBox="0 0 24 24" fill="none" xmlns="http://www.w3.org/2000/svg">
<path d="M17 21L17 7.8C17 6.11984 17 5.27976 16.673 4.63803C16.3854 4.07354 15.9265 3.6146 15.362 3.32698C14.7202 3 13.8802 3 12.2 3L11.8 3C10.1198 3 9.27976 3 8.63803 3.32698C8.07354 3.6146 7.6146 4.07354 7.32698 4.63803C7 5.27976 7 6.11984 7 7.8L7 21M17 21H7M17 21H22V12.8C22 11.1198 22 10.2798 21.673 9.63803C21.3854 9.07354 20.9265 8.6146 20.362 8.32698C19.7202 8 18.8802 8 17.2 8H17L17 21ZM7 21V11H6.8C5.11984 11 4.27976 11 3.63803 11.327C3.07354 11.6146 2.6146 12.0735 2.32698 12.638C2 13.2798 2 14.1198 2 15.8L2 21H7ZM4 21L20 21M10.3047 7H13.6953M10.3047 11H13.6953M10.3047 15H13.6953" stroke="black" stroke-width="2" stroke-linecap="round" stroke-linejoin="round"/>
</svg>
