<svg width="24" height="24" viewBox="0 0 24 24" fill="none" xmlns="http://www.w3.org/2000/svg">
<path d="M4.30802 12.0099L2.85025 12.8449C2.04589 13.3057 1.76894 14.3323 2.23243 15.1351C2.69369 15.934 3.71427 16.2093 4.51476 15.7508L5.98244 14.9101M12.4997 16L8.99971 22M14.9997 16L18.4997 22M3.99971 11.3298L16.1241 4.32981L18.6241 8.65994L6.49971 15.6599L3.99971 11.3298ZM21.1042 8.3831C20.8744 8.51578 20.7595 8.58211 20.6565 8.62703C19.8013 9.00017 18.8017 8.73232 18.2476 7.98155C18.1809 7.89118 18.1145 7.77627 17.9819 7.54647L16.7676 5.44326C16.6349 5.21346 16.5686 5.09856 16.5236 4.99561C16.1505 4.14036 16.4183 3.14073 17.1691 2.58663C17.2595 2.51994 17.3744 2.4536 17.6042 2.32092C17.7766 2.22141 17.8627 2.17166 17.9399 2.13797C18.5814 1.85812 19.3311 2.059 19.7467 2.62209C19.7967 2.68986 19.8464 2.77604 19.946 2.94839L21.7317 6.04134C21.8312 6.21369 21.8809 6.29987 21.9146 6.37708C22.1945 7.01852 21.9936 7.76824 21.4305 8.18382C21.3627 8.23384 21.2765 8.28359 21.1042 8.3831ZM15.4931 12.88C16.0701 13.8793 15.7277 15.1571 14.7284 15.734C13.7291 16.311 12.4514 15.9686 11.8744 14.9693C11.2975 13.97 11.6399 12.6922 12.6391 12.1153C13.6384 11.5384 14.9162 11.8808 15.4931 12.88Z" stroke="black" stroke-width="2" stroke-linecap="round" stroke-linejoin="round"/>
</svg>
